<?xml version="1.0" standalone="no"?>
<!DOCTYPE svg PUBLIC "-//W3C//DTD SVG 20010904//EN"
 "http://www.w3.org/TR/2001/REC-SVG-20010904/DTD/svg10.dtd">
<svg version="1.0" xmlns="http://www.w3.org/2000/svg"
 width="472.000000pt" height="472.000000pt" viewBox="0 0 472.000000 472.000000"
 preserveAspectRatio="xMidYMid meet">
<metadata>
Created by potrace 1.14, written by Peter Selinger 2001-2017
</metadata>
<g transform="translate(0.000000,472.000000) scale(0.100000,-0.100000)"
fill="#000000" stroke="none">
<path d="M1588 4659 c-10 -5 -18 -16 -18 -24 0 -7 -14 -18 -30 -24 -17 -5 -38
-24 -48 -41 -9 -16 -25 -33 -35 -36 -10 -3 -22 -17 -27 -30 -5 -13 -15 -24
-23 -24 -15 0 -43 -31 -51 -58 -4 -12 -16 -24 -26 -27 -11 -4 -23 -18 -26 -33
-9 -46 -23 -72 -37 -72 -7 0 -21 -24 -31 -52 -11 -29 -29 -64 -42 -79 -13 -14
-24 -36 -24 -49 0 -14 -10 -34 -23 -45 -13 -11 -32 -44 -42 -72 -11 -29 -25
-53 -31 -53 -7 0 -21 -26 -30 -57 -10 -33 -28 -66 -41 -76 -13 -10 -23 -24
-23 -32 0 -19 -40 -105 -49 -105 -12 0 -31 -47 -31 -76 0 -14 -11 -35 -25 -49
-16 -14 -28 -39 -32 -62 -3 -21 -16 -49 -28 -63 -31 -34 -41 -57 -50 -107 -4
-24 -10 -43 -14 -43 -17 0 -40 -69 -44 -132 -3 -39 -13 -85 -25 -110 -30 -61
-52 -153 -52 -215 0 -29 -4 -53 -9 -53 -15 0 -39 -84 -45 -160 -3 -41 -10 -76
-16 -78 -5 -2 -10 -11 -10 -21 0 -9 -4 -21 -9 -27 -16 -15 -41 -154 -41 -224
0 -36 -9 -101 -21 -145 -32 -126 -42 -347 -36 -810 5 -421 6 -434 44 -522 7
-17 13 -45 13 -63 0 -47 28 -134 50 -158 11 -12 23 -35 26 -52 4 -16 17 -41
29 -55 13 -13 26 -32 29 -42 3 -10 19 -34 36 -53 17 -19 33 -44 36 -55 7 -20
61 -75 159 -160 31 -27 66 -58 76 -68 10 -9 24 -17 29 -17 6 0 10 -4 10 -10 0
-5 13 -10 29 -10 16 0 36 -7 45 -15 11 -12 41 -15 130 -15 67 0 116 4 116 10
0 5 16 12 37 16 39 7 73 31 73 51 0 8 11 19 25 25 16 7 25 19 25 33 0 12 13
38 29 58 15 20 36 63 45 97 9 33 21 60 27 60 5 0 9 7 9 15 0 8 4 15 9 15 6 0
13 20 16 44 4 24 17 54 31 69 13 14 32 51 42 81 11 31 29 67 41 79 17 19 21
36 21 83 0 33 -5 65 -11 71 -8 8 -8 13 0 17 6 4 11 20 11 35 0 24 6 30 43 41
55 18 84 40 92 67 3 13 10 23 15 23 14 0 40 55 40 84 0 28 19 76 30 76 12 0
50 37 50 48 0 6 11 19 25 30 14 11 25 29 25 40 0 11 7 25 15 32 8 7 15 19 15
26 0 8 6 14 13 14 14 0 31 43 42 103 5 34 8 37 33 31 41 -10 42 -12 42 -64 0
-57 23 -158 51 -219 12 -26 22 -76 26 -126 5 -70 10 -88 31 -110 16 -18 26
-43 30 -73 3 -29 14 -56 29 -71 12 -14 23 -34 23 -43 0 -10 5 -18 10 -18 6 0
10 -6 10 -14 0 -8 14 -28 30 -44 18 -19 30 -41 30 -57 0 -18 13 -40 40 -66 22
-22 40 -44 40 -49 0 -6 6 -10 13 -10 6 0 28 -18 47 -40 27 -31 42 -40 68 -40
22 0 40 -8 56 -25 13 -14 30 -25 38 -25 21 0 122 -32 128 -41 33 -46 295 -54
381 -11 25 12 55 22 67 22 11 0 23 4 26 9 3 5 23 12 43 16 21 4 47 18 60 31
12 13 31 24 41 24 20 0 52 29 52 48 0 7 5 12 11 12 15 0 49 39 49 56 0 7 9 16
20 19 11 4 27 19 34 34 8 15 22 34 32 42 9 8 25 26 34 41 9 16 33 46 53 68 21
21 37 41 37 44 0 3 11 16 25 30 14 14 25 33 25 42 0 9 14 32 30 51 17 18 30
42 30 52 0 10 15 41 33 67 19 27 37 64 40 82 4 19 18 47 32 64 19 23 25 41 25
79 0 32 9 70 24 102 35 78 45 112 52 185 5 59 27 127 45 142 3 3 9 43 12 90 8
99 11 117 20 126 4 4 7 22 7 39 0 17 3 35 7 39 4 3 8 14 9 24 1 9 5 40 10 67
4 28 8 162 8 298 0 204 -3 250 -14 257 -9 6 -17 35 -22 77 -11 108 -31 189
-55 222 -13 17 -23 36 -23 43 0 24 -31 132 -39 138 -15 10 -41 69 -41 94 0 14
-11 36 -25 50 -13 13 -27 37 -30 53 -10 43 -28 87 -41 98 -6 6 -19 30 -28 55
-10 24 -28 54 -41 65 -12 12 -25 31 -29 41 -3 11 -22 37 -41 57 -19 20 -35 41
-35 45 0 5 -11 15 -25 22 -14 7 -25 22 -25 32 0 10 -10 23 -23 29 -13 6 -32
26 -42 45 -10 19 -24 34 -31 34 -7 0 -18 9 -24 19 -20 38 -266 277 -298 290
-48 20 -183 9 -197 -16 -5 -9 -25 -32 -42 -50 -30 -29 -45 -73 -25 -73 4 0 21
-20 37 -45 17 -24 34 -45 38 -45 13 0 34 -24 41 -47 4 -12 18 -28 31 -37 14
-9 25 -22 25 -28 0 -7 18 -29 40 -49 22 -21 40 -41 40 -46 0 -5 18 -27 40 -48
22 -21 40 -45 40 -52 0 -7 5 -13 11 -13 15 0 35 -22 43 -47 4 -12 16 -25 26
-28 12 -4 24 -22 30 -47 6 -22 23 -52 38 -66 15 -15 36 -49 46 -75 10 -27 24
-51 32 -54 8 -3 14 -16 14 -28 0 -13 10 -32 23 -42 29 -23 57 -67 57 -90 1
-21 23 -53 38 -53 5 0 13 -36 16 -82 9 -109 27 -211 41 -220 16 -11 14 -593
-2 -609 -7 -7 -13 -28 -13 -45 0 -18 -4 -35 -8 -38 -5 -3 -12 -70 -16 -148 -4
-79 -11 -147 -17 -152 -5 -6 -9 -18 -9 -27 0 -10 -5 -19 -11 -21 -5 -2 -14
-28 -18 -58 -8 -57 -16 -76 -57 -137 -13 -20 -24 -48 -24 -63 0 -15 -10 -36
-25 -50 -14 -13 -25 -34 -25 -46 0 -12 -7 -29 -15 -38 -8 -8 -15 -19 -15 -24
0 -5 -9 -17 -20 -27 -10 -9 -26 -39 -35 -65 -9 -26 -25 -56 -35 -65 -11 -10
-20 -31 -20 -46 0 -15 -7 -34 -15 -43 -8 -8 -15 -19 -15 -25 0 -6 -3 -11 -8
-11 -4 0 -16 -17 -27 -37 -11 -21 -28 -44 -38 -51 -9 -7 -24 -26 -32 -43 -11
-20 -23 -29 -41 -29 -14 0 -35 -11 -49 -26 -32 -35 -132 -49 -230 -33 -74 12
-105 26 -105 46 0 7 -11 13 -25 13 -14 0 -25 6 -25 13 0 8 -12 32 -28 53 -39
56 -50 83 -55 135 -2 27 -15 62 -31 85 -17 26 -26 52 -26 78 0 37 -10 78 -32
136 -23 58 -37 131 -43 230 -5 77 -13 117 -28 150 -21 42 -22 59 -22 296 0
230 -2 253 -20 287 -11 20 -25 37 -32 37 -7 0 -13 4 -13 8 0 13 -56 72 -68 72
-7 0 -12 5 -12 10 0 20 -35 46 -77 60 -73 23 -163 -17 -163 -73 0 -7 -11 -24
-24 -36 -13 -13 -27 -38 -30 -57 -4 -19 -11 -34 -16 -34 -6 0 -10 -5 -10 -11
0 -6 -11 -25 -25 -43 -14 -18 -25 -42 -25 -54 0 -11 -11 -33 -24 -49 -13 -15
-29 -46 -34 -67 -6 -21 -20 -48 -30 -60 -10 -12 -26 -40 -36 -64 -9 -24 -28
-55 -41 -70 -15 -16 -25 -39 -25 -56 0 -18 -9 -37 -25 -52 -14 -13 -25 -28
-25 -33 0 -19 -35 -86 -57 -111 -14 -15 -23 -38 -23 -57 0 -24 -8 -40 -30 -60
-17 -15 -30 -36 -30 -50 0 -12 -4 -23 -10 -23 -5 0 -10 -9 -10 -20 0 -10 -6
-23 -13 -27 -23 -14 -47 -57 -47 -84 0 -17 -9 -35 -25 -47 -14 -11 -25 -28
-25 -37 0 -15 -27 -72 -40 -85 -15 -14 -40 -61 -40 -76 0 -9 -14 -33 -30 -54
-17 -21 -30 -47 -30 -59 0 -12 -3 -21 -8 -21 -7 0 -25 -30 -38 -63 -3 -9 -10
-17 -15 -17 -5 0 -9 -11 -9 -23 0 -14 -13 -35 -30 -50 -20 -19 -30 -37 -30
-56 0 -19 -8 -36 -24 -48 -13 -10 -26 -28 -30 -39 -7 -23 -82 -104 -96 -104
-6 0 -10 7 -10 17 0 9 -10 30 -23 47 -13 17 -29 51 -35 76 -12 48 -25 213 -23
295 1 41 -4 56 -24 77 l-25 27 0 303 c0 302 0 304 23 338 22 32 25 50 30 195
4 88 9 171 13 185 3 14 8 52 11 85 3 33 9 65 14 70 16 21 30 101 38 207 6 93
10 110 29 126 12 11 25 34 28 51 4 17 11 34 15 37 5 3 9 16 9 29 0 13 7 28 15
32 8 5 22 37 31 72 9 36 21 70 28 77 31 35 36 45 36 63 0 21 27 83 60 141 11
19 20 47 20 63 0 17 10 37 25 51 17 16 25 34 25 57 0 30 19 72 40 89 10 9 40
95 40 117 0 11 7 27 17 34 21 18 43 71 43 104 0 15 11 36 24 48 13 12 32 50
43 84 10 35 29 74 41 88 13 15 22 39 22 58 0 49 10 76 31 82 10 3 21 16 24 28
20 75 32 104 51 122 12 11 24 30 28 42 4 13 18 26 32 29 17 4 24 13 24 30 0
13 5 24 11 24 37 0 75 98 64 165 -5 33 -43 105 -66 125 -3 3 -8 13 -12 22 -3
9 -25 30 -49 45 -23 15 -53 38 -66 51 -22 19 -35 22 -111 22 -47 0 -94 -5
-103 -11z m2342 -1346 c0 -5 -4 -14 -9 -21 -7 -11 -9 -11 -14 1 -3 8 -3 18 0
21 9 8 23 7 23 -1z m177 -1255 c-2 -13 -4 -3 -4 22 0 25 2 35 4 23 2 -13 2
-33 0 -45z"/>
</g>
</svg>
